<?xml version="1.0" standalone="no"?>
<!DOCTYPE svg PUBLIC "-//W3C//DTD SVG 20010904//EN"
 "http://www.w3.org/TR/2001/REC-SVG-20010904/DTD/svg10.dtd">
<svg version="1.0" xmlns="http://www.w3.org/2000/svg"
 width="501.000000pt" height="501.000000pt" viewBox="0 0 501.000000 501.000000"
 preserveAspectRatio="xMidYMid meet">
<metadata>
Created by potrace 1.11, written by Peter Selinger 2001-2013
</metadata>
<g transform="translate(0.000000,501.000000) scale(0.100000,-0.100000)"
fill="#000000" stroke="none">
<path d="M2150 4231 c-47 -15 -88 -40 -121 -76 -19 -20 -34 -39 -35 -43 0 -4
-7 -20 -14 -37 -14 -32 -19 -289 -7 -336 6 -25 36 -63 69 -88 10 -7 62 -17
116 -21 141 -11 211 -52 255 -149 18 -42 20 -70 22 -455 1 -226 5 -419 9 -428
9 -20 60 -36 94 -30 35 7 44 36 48 155 4 126 13 160 55 214 37 46 72 70 124
84 27 8 255 12 695 13 636 2 657 3 695 22 24 13 46 35 59 60 20 37 21 56 21
477 1 427 1 440 -20 492 -25 61 -57 96 -117 127 l-43 23 -940 2 c-517 1 -951
-2 -965 -6z"/>
<path d="M420 3630 c-118 -20 -230 -133 -247 -248 -3 -20 -5 -289 -5 -597 0
-545 0 -561 21 -615 26 -69 89 -136 161 -169 50 -23 67 -25 190 -26 122 0 138
2 170 22 47 29 71 73 77 141 13 133 88 240 201 282 56 21 69 22 735 23 659 2
679 3 693 21 18 25 18 57 0 81 -12 16 -29 20 -97 23 -155 5 -232 40 -299 137
-51 75 -53 94 -54 465 -2 387 -3 392 -73 440 l-37 25 -700 0 c-386 0 -717 -2
-736 -5z"/>
<path d="M4313 3007 c-42 -29 -63 -66 -69 -124 -12 -108 -41 -173 -99 -226
-39 -36 -110 -72 -157 -81 -31 -6 -457 -10 -484 -5 -5 1 -204 1 -442 0 l-433
-1 -25 -25 c-18 -18 -23 -32 -20 -52 9 -48 29 -58 134 -64 160 -9 249 -63 308
-187 l28 -57 1 -355 c2 -374 3 -382 49 -424 49 -44 45 -44 796 -40 393 2 721
5 728 6 6 1 12 5 12 10 0 4 7 8 16 8 21 0 96 55 121 89 11 14 31 47 44 71 l24
45 0 605 c0 595 0 606 -21 650 -29 61 -79 114 -139 147 -47 26 -57 28 -195 30
-134 1 -147 0 -177 -20z"/>
<path d="M2471 2423 c-19 -10 -31 -23 -32 -37 -1 -11 -2 -48 -3 -81 -4 -107
-20 -157 -76 -232 -20 -27 -102 -82 -142 -95 -21 -7 -261 -11 -678 -12 -675
-2 -665 -1 -711 -45 -49 -47 -50 -52 -47 -503 l3 -423 24 -49 c44 -89 130
-158 216 -174 41 -8 1719 -7 1772 1 92 14 179 82 225 177 17 37 22 67 25 174
3 118 1 131 -19 169 -24 41 -66 67 -123 73 -117 14 -167 37 -236 106 -27 27
-50 54 -50 59 -2 14 -5 22 -19 54 -10 23 -13 124 -15 415 -1 212 -5 393 -9
402 -7 15 -30 28 -62 34 -6 1 -25 -5 -43 -13z"/>
</g>
</svg>
